<?xml version="1.0" encoding="UTF-8"?>
<svg width="24px" height="24px" viewBox="0 0 24 24" version="1.1" xmlns="http://www.w3.org/2000/svg" xmlns:xlink="http://www.w3.org/1999/xlink">
    <title>Looker Studio Icon</title>
    <g id="looker-studio-icon" stroke="none" stroke-width="1" fill="none" fill-rule="evenodd">
        <path d="M12,2 C17.523,2 22,6.477 22,12 C22,17.523 17.523,22 12,22 C6.477,22 2,17.523 2,12 C2,6.477 6.477,2 12,2 Z" id="background" fill="#4285F4"></path>
        <path d="M17,7 L7,7 C6.448,7 6,7.448 6,8 L6,16 C6,16.552 6.448,17 7,17 L17,17 C17.552,17 18,16.552 18,16 L18,8 C18,7.448 17.552,7 17,7 Z M8,15 L8,13 L10,13 L10,15 L8,15 Z M12,15 L12,10 L14,10 L14,15 L12,15 Z M16,15 L16,9 L16,9 L16,15 Z" id="chart" fill="#FFFFFF"></path>
    </g>
</svg> 